<svg width="289" height="59" viewBox="0 0 289 59" fill="none" xmlns="http://www.w3.org/2000/svg">
<rect width="289" height="59" rx="29.5" fill="#EB1700"/>
<path d="M82.5691 16.4C82.5691 14.32 84.1691 12.72 86.1691 12.72C88.1691 12.72 89.7691 14.32 89.7691 16.4C89.7691 18.48 88.1691 20.08 86.1691 20.08C84.1691 20.08 82.5691 18.48 82.5691 16.4ZM80.0891 16.4C80.0891 19.6 82.7291 22.24 86.1691 22.24C89.6091 22.24 92.2491 19.6 92.2491 16.4C92.2491 13.2 89.6091 10.56 86.1691 10.56C82.7291 10.56 80.0891 13.2 80.0891 16.4ZM98.7347 14.08H98.4147C96.9747 14.08 96.1747 15.12 96.1747 15.12V14.16H94.0147V22H96.1747V18.24C96.1747 16.88 96.8947 16.16 98.0147 16.16C98.4947 16.16 98.7347 16.24 98.7347 16.24V14.08ZM103.217 14C101.217 14 99.4566 15.76 99.4566 18.08C99.4566 20.4 101.217 22.16 103.217 22.16C104.737 22.16 105.537 21.04 105.537 21.04V22H107.697V10.8H105.537V15.12C105.537 15.12 104.737 14 103.217 14ZM103.617 20.24C102.577 20.24 101.697 19.36 101.697 18.08C101.697 16.8 102.577 15.92 103.617 15.92C104.657 15.92 105.537 16.8 105.537 18.08C105.537 19.36 104.657 20.24 103.617 20.24ZM117.298 18.8C117.298 18.8 117.378 18.48 117.378 17.92C117.378 15.68 115.698 14 113.458 14C111.218 14 109.378 15.84 109.378 18.08C109.378 20.32 111.218 22.16 113.538 22.16C115.698 22.16 116.898 20.8 116.898 20.8L115.778 19.36C115.778 19.36 115.058 20.32 113.698 20.32C112.498 20.32 111.778 19.6 111.618 18.8H117.298ZM113.458 15.84C114.418 15.84 115.058 16.48 115.218 17.28H111.618C111.858 16.48 112.498 15.84 113.458 15.84ZM123.703 14.08H123.383C121.943 14.08 121.143 15.12 121.143 15.12V14.16H118.983V22H121.143V18.24C121.143 16.88 121.863 16.16 122.983 16.16C123.463 16.16 123.703 16.24 123.703 16.24V14.08ZM129.947 18.08C129.947 16.88 130.827 16 131.867 16C132.907 16 133.787 16.88 133.787 18.08C133.787 19.28 132.907 20.16 131.867 20.16C130.827 20.16 129.947 19.28 129.947 18.08ZM136.027 18.08C136.027 15.92 134.107 14 131.867 14C129.627 14 127.707 15.92 127.707 18.08C127.707 20.24 129.627 22.16 131.867 22.16C134.107 22.16 136.027 20.24 136.027 18.08ZM139.784 14.16H137.624V22H139.784V17.92C139.784 16.72 140.424 16.08 141.384 16.08C142.264 16.08 142.904 16.72 142.904 17.68V22H145.064V17.44C145.064 15.28 143.784 14 142.024 14C140.584 14 139.784 15.12 139.784 15.12V14.16ZM149.38 10.8H147.22V22H149.38V10.8ZM153.786 14.16H151.626V22H153.786V14.16ZM153.946 11.92C153.946 11.2 153.466 10.72 152.666 10.72C151.946 10.72 151.466 11.2 151.466 11.92C151.466 12.64 151.946 13.12 152.666 13.12C153.466 13.12 153.946 12.64 153.946 11.92ZM158.112 14.16H155.952V22H158.112V17.92C158.112 16.72 158.752 16.08 159.712 16.08C160.592 16.08 161.232 16.72 161.232 17.68V22H163.392V17.44C163.392 15.28 162.112 14 160.352 14C158.912 14 158.112 15.12 158.112 15.12V14.16ZM172.908 18.8C172.908 18.8 172.988 18.48 172.988 17.92C172.988 15.68 171.308 14 169.068 14C166.828 14 164.988 15.84 164.988 18.08C164.988 20.32 166.828 22.16 169.148 22.16C171.308 22.16 172.508 20.8 172.508 20.8L171.388 19.36C171.388 19.36 170.668 20.32 169.308 20.32C168.108 20.32 167.388 19.6 167.228 18.8H172.908ZM169.068 15.84C170.028 15.84 170.668 16.48 170.828 17.28H167.228C167.468 16.48 168.108 15.84 169.068 15.84ZM182.194 14.16L180.674 18.88L179.154 14.16H176.914L179.586 22H181.474L182.994 17.52L184.514 22H186.402L189.074 14.16H186.834L185.314 18.88L183.794 14.16H182.194ZM192.427 14.16H190.267V22H192.427V14.16ZM192.587 11.92C192.587 11.2 192.107 10.72 191.307 10.72C190.587 10.72 190.107 11.2 190.107 11.92C190.107 12.64 190.587 13.12 191.307 13.12C192.107 13.12 192.587 12.64 192.587 11.92ZM195.553 13.28C195.553 13.92 195.153 14.32 194.673 14.32H193.953V16.24H195.313V19.44C195.313 21.28 196.193 22.16 197.793 22.16C198.593 22.16 199.233 21.92 199.233 21.92V20.08C199.233 20.08 198.913 20.24 198.433 20.24C197.873 20.24 197.473 19.84 197.473 19.36V16.24H199.073V14.32H197.473V11.84H195.553V13.28ZM203.317 10.8H201.157V22H203.317V17.92C203.317 16.72 203.957 16.08 204.917 16.08C205.797 16.08 206.437 16.72 206.437 17.68V22H208.597V17.44C208.597 15.28 207.317 14 205.557 14C204.117 14 203.317 15.12 203.317 15.12V10.8Z" fill="white"/>
<g clip-path="url(#clip0)">
<path fill-rule="evenodd" clip-rule="evenodd" d="M199.563 38.0531C199.563 36.046 201.315 34.2938 204.055 34.2938C205.52 34.262 206.954 34.8035 208.037 35.823C208.165 35.9504 208.165 36.1735 208.037 36.3009L206.795 37.5434C206.667 37.6708 206.476 37.6708 206.349 37.5752C205.775 37.0336 205.011 36.7469 204.214 36.7469C203.099 36.7469 202.303 37.3841 202.303 38.1168C202.303 39.1204 203.449 39.4608 204.779 39.8556C206.616 40.4008 208.802 41.0498 208.802 43.692C208.802 45.9858 207.05 47.7381 203.959 47.7381C202.239 47.7699 200.55 47.1009 199.34 45.8903C199.212 45.7628 199.212 45.5717 199.34 45.4443L200.519 44.2655C200.646 44.1381 200.837 44.1381 200.965 44.2655C201.729 44.9982 202.717 45.4124 203.768 45.4124C205.138 45.4124 206.062 44.6797 206.062 43.7558C206.048 42.7229 204.894 42.3678 203.562 41.9579C201.731 41.3944 199.563 40.7275 199.563 38.0531ZM133.552 41.0159C133.552 43.3416 131.673 45.2212 129.347 45.2212C127.021 45.2212 125.142 43.3416 125.142 41.0159C125.142 38.6903 127.021 36.8106 129.347 36.8106C131.673 36.8106 133.552 38.6903 133.552 41.0159ZM136.292 41.0159C136.292 37.3522 133.297 34.3257 129.347 34.3257C125.396 34.3257 122.402 37.3522 122.402 41.0159C122.402 44.6797 125.428 47.7062 129.347 47.7062C133.265 47.7062 136.292 44.6797 136.292 41.0159ZM111.028 44.9345V37.0655H113.067H113.195C115.297 37.1292 116.954 38.9133 116.89 41.0159C116.89 43.1504 115.17 44.9027 113.035 44.9345H111.028ZM119.662 41.0159C119.662 37.4478 116.827 34.6124 113.067 34.6124H108.639C108.448 34.6124 108.32 34.7398 108.32 34.931V47.1009C108.32 47.292 108.448 47.4195 108.639 47.4195H113.067C116.827 47.4195 119.662 44.5841 119.662 41.0159ZM145.881 45.2212C148.207 45.2212 150.087 43.3416 150.087 41.0159C150.087 38.6903 148.207 36.8106 145.881 36.8106C143.556 36.8106 141.676 38.6903 141.676 41.0159C141.676 43.3416 143.556 45.2212 145.881 45.2212ZM145.881 34.3257C149.832 34.3257 152.826 37.3522 152.826 41.0159C152.826 44.6797 149.8 47.7062 145.881 47.7062C141.963 47.7062 138.936 44.6797 138.936 41.0159C138.936 37.3522 141.931 34.3257 145.881 34.3257ZM159.23 37.0655H162.065C162.097 37.0655 162.129 37.0655 162.193 37.0336C163.117 37.0655 163.85 37.862 163.818 38.7858V38.8496C163.754 39.7735 162.989 40.4743 162.065 40.4425H159.23V37.0655ZM156.809 34.6124C156.618 34.6124 156.49 34.7398 156.49 34.931L156.522 47.1009C156.522 47.292 156.65 47.4195 156.841 47.4195H158.911C159.103 47.4195 159.23 47.292 159.23 47.1009V42.9593H161.619L164.009 47.2602C164.073 47.3558 164.168 47.4195 164.296 47.4195H166.462C166.526 47.4195 166.589 47.3876 166.653 47.3558C166.812 47.2602 166.844 47.069 166.749 46.9097L164.264 42.577C165.697 41.8761 166.589 40.4106 166.557 38.8177C166.557 36.492 164.71 34.6124 162.161 34.6124H156.809ZM173.694 37.1292V44.9982H175.701C177.835 44.9664 179.556 43.2142 179.556 41.0797C179.619 38.977 177.963 37.1929 175.86 37.1292H175.733H173.694ZM175.701 34.6443C179.46 34.6443 182.296 37.4797 182.296 41.0478C182.296 44.6159 179.46 47.4513 175.701 47.4513H171.273C171.081 47.4513 170.954 47.3239 170.954 47.1328V34.9947C170.954 34.8035 171.081 34.6761 171.273 34.6761L175.701 34.6443ZM189.113 42.0035L190.674 37.7982L192.235 42.0035H189.113ZM187.17 47.1965L188.189 44.3929H193.159L194.179 47.1965C194.211 47.3239 194.338 47.4195 194.497 47.4195H196.696C196.727 47.4195 196.791 47.4195 196.855 47.3876C197.014 47.3239 197.078 47.1327 197.014 46.9735L192.235 34.8354C192.204 34.6761 192.044 34.6124 191.917 34.6124H189.432C189.304 34.6124 189.145 34.708 189.113 34.8354L184.334 46.9735C184.303 47.0053 184.303 47.069 184.303 47.1327C184.334 47.3239 184.494 47.4513 184.653 47.4195H186.851C187.011 47.4195 187.138 47.3239 187.17 47.1965ZM220.589 39.7416V34.931V34.8991C220.589 34.7398 220.717 34.6124 220.908 34.6124H222.979H223.011C223.17 34.6124 223.297 34.7398 223.297 34.931V47.069V47.1009C223.297 47.2602 223.17 47.3876 222.979 47.3876H220.908H220.876C220.717 47.3876 220.589 47.2602 220.589 47.069V42.1947H215.11V47.1009V47.1327C215.11 47.3239 214.982 47.4513 214.791 47.4513H212.72H212.688C212.529 47.4513 212.402 47.3239 212.402 47.1327V34.9947V34.9628C212.402 34.7717 212.529 34.6443 212.72 34.6443H214.791H214.823C214.982 34.6443 215.11 34.7717 215.11 34.9628V39.7416H220.589Z" fill="white"/>
<path d="M97.4566 36.269C96.0549 33.6248 93.315 32 90.3522 32H67.7646C67.3504 32 67 32.3504 67 32.7965C67 32.9876 67.0956 33.1788 67.223 33.3381L72.1292 38.2761C72.5752 38.7221 73.1487 38.977 73.754 38.9451H89.6513C90.7982 38.9451 91.7221 39.8372 91.7221 40.9841C91.7221 42.131 90.8301 43.0549 89.6832 43.0549H78.7558C78.3416 43.0549 77.9912 43.4053 77.9912 43.8513C77.9912 44.0425 78.0867 44.2336 78.2142 44.3929L83.1204 49.331C83.5664 49.777 84.1398 50 84.777 50H89.7469C96.1823 50 101.057 43.1186 97.4566 36.269Z" fill="white"/>
</g>
<defs>
<clipPath id="clip0">
<rect width="156.857" height="18" fill="white" transform="translate(67 32)"/>
</clipPath>
</defs>
</svg>
